<?xml version="1.0" standalone="no"?>
<!DOCTYPE svg PUBLIC "-//W3C//DTD SVG 1.1//EN" "http://www.w3.org/Graphics/SVG/1.1/DTD/svg11.dtd">
<svg width="100%" height="100%" version="1.1" viewBox="-45 -45 90 90" xmlns="http://www.w3.org/2000/svg">

<circle r="22" style="stroke:white;stroke-width:35;fill:none;"/>
<circle r="40" style="stroke:black;stroke-width:5;fill:none;"/>
<circle r="5" style="stroke:black;stroke-width:5;fill:none;"/>

<circle r="14" style="stroke:black;stroke-width:1;fill:none;stroke-dasharray:2,1;"/>
<circle r="31" style="stroke:black;stroke-width:1;fill:none;stroke-dasharray:2,1;"/>

<path style="stroke:#dd2200;fill:none;" d="M
   12.09135    7.05686 L
   12.46961    6.36465
   23.48165   11.16297
   25.25062   11.14299
   25.92487   10.57832
   25.83813    9.70315
   28.37090    9.75150
   30.16153    9.42561
   30.80010    8.68067
   23.27432    5.85714
   24.40634    5.41577
   31.42301    6.04933
   31.71384    4.26994
   31.42378    3.33261
   31.30579    2.43054
   31.16208    1.53777
   31.59294    0.66771
   27.39932   -0.19300
   27.78276   -0.97890
   28.14335   -1.78655
   30.27263   -2.77987
   26.01238   -3.12987
   26.50733   -3.94988
   26.18862   -4.66004
   26.66308   -6.31192
   30.72608   -8.19438
   29.90788   -8.88586
   28.50546   -9.35086
   28.79533  -10.35321
   26.07132  -10.21206
   12.88664   -5.47124
   11.33782   -8.21303
   19.98350  -15.35252
   23.26554  -18.93976
   23.63164  -20.37119
   23.34386  -21.29846
   10.07228   -9.72364
   20.98789  -21.43615
   21.46236  -23.19326
   21.06374  -24.08981
   15.28254  -18.50524
   15.36994  -19.71712
   18.95471  -25.78214
   17.47254  -26.80878
   16.50146  -26.94924
   15.63611  -27.22999
   14.76811  -27.48350
   14.16732  -28.24619
   13.45054  -28.81533
   12.71287  -29.36636
   11.95477  -29.89855
   10.34881  -28.15852
    9.61510  -28.62848
    9.03800  -29.65324
    8.25192  -30.08897
    7.30609  -29.92091
    6.20856  -28.94156
    5.09936  -27.53174
    4.25998  -27.26926
    3.51535  -27.57684
    2.73706  -27.66493
    1.97067  -27.93056
    1.19148  -28.17482
    0.40290  -28.59716
   -0.40008  -28.39718
   -1.18303  -27.97500
   -1.98475  -28.13007
   -2.04787  -20.69894
   -1.77032  -13.88762
   -2.54968  -13.76587
"/>
</svg>